<svg width="40" height="40" viewBox="0 0 40 40" fill="none" xmlns="http://www.w3.org/2000/svg">
<path d="M33.3333 20V9.58167C33.3334 9.45011 33.3076 9.31982 33.2572 9.19827C33.2069 9.07673 33.1331 8.9663 33.04 8.87334L27.7933 3.62667C27.606 3.43908 27.3518 3.33357 27.0867 3.33334H7.66667C7.40145 3.33334 7.1471 3.43869 6.95956 3.62623C6.77202 3.81377 6.66667 4.06812 6.66667 4.33334V35.6667C6.66667 35.9319 6.77202 36.1862 6.95956 36.3738C7.1471 36.5613 7.40145 36.6667 7.66667 36.6667H18.3333M13.3333 16.6667H26.6667M13.3333 10H20M13.3333 23.3333H18.3333M29.9233 28.2333L31.59 26.5667C31.7634 26.3928 31.9694 26.2549 32.1962 26.1608C32.423 26.0666 32.6661 26.0182 32.9117 26.0182C33.1572 26.0182 33.4003 26.0666 33.6271 26.1608C33.8539 26.2549 34.0599 26.3928 34.2333 26.5667C34.4069 26.74 34.5447 26.9459 34.6386 27.1726C34.7326 27.3992 34.781 27.6422 34.781 27.8875C34.781 28.1329 34.7326 28.3758 34.6386 28.6024C34.5447 28.8291 34.4069 29.035 34.2333 29.2083L32.5667 30.875L29.9233 28.2317L24.9383 33.2167C24.6891 33.4667 24.5257 33.7894 24.4717 34.1383L24.065 36.7333L26.66 36.3283C27.0089 36.2743 27.3316 36.1109 27.5817 35.8617L32.565 30.875" stroke="#B9E42B" stroke-width="1.5" stroke-linecap="round" stroke-linejoin="round"/>
<path d="M26.6667 3.33334V9C26.6667 9.26522 26.772 9.51957 26.9596 9.70711C27.1471 9.89465 27.4015 10 27.6667 10H33.3333" stroke="#B9E42B" stroke-width="1.5" stroke-linecap="round" stroke-linejoin="round"/>
</svg>
