<svg width="40" height="40" viewBox="0 0 40 40" fill="none" xmlns="http://www.w3.org/2000/svg">
<path d="M20 25C21.3261 25 22.5979 24.4732 23.5355 23.5355C24.4732 22.5979 25 21.3261 25 20C25 18.6739 24.4732 17.4021 23.5355 16.4645C22.5979 15.5268 21.3261 15 20 15C18.6739 15 17.4021 15.5268 16.4645 16.4645C15.5268 17.4021 15 18.6739 15 20C15 21.3261 15.5268 22.5979 16.4645 23.5355C17.4021 24.4732 18.6739 25 20 25Z" stroke="#B9E42B" stroke-width="1.5" stroke-linecap="round" stroke-linejoin="round"/>
<path d="M32.7033 17.325L30.875 12.9083L33.3333 10L30 6.66667L27.1083 9.13833L22.5967 7.28333L21.5583 3.33333H18.3017L17.2483 7.335L12.84 9.19333L9.99999 6.66667L6.66666 10L9.08833 12.9817L7.28833 17.41L3.33333 18.3333V21.6667L7.33499 22.76L9.19333 27.1667L6.66666 30L9.99999 33.3333L12.985 30.9L17.3283 32.6867L18.3333 36.6667H21.6667L22.6733 32.6883L27.0917 30.8583C27.8283 31.3867 30 33.3333 30 33.3333L33.3333 30L30.86 27.0833L32.69 22.6633L36.6667 21.63V18.3333L32.7033 17.325Z" stroke="#B9E42B" stroke-width="1.5" stroke-linecap="round" stroke-linejoin="round"/>
</svg>
